HIERARCHY
ROOT Hips
{
	OFFSET 0.000000 0.000000 0.000000
	CHANNELS 6 Xposition Yposition Zposition Xrotation Yrotation Zrotation
	JOINT LeftUpLeg_virtual
	{
		OFFSET 0.000000 0.000000 0.000000
		CHANNELS 3 Xrotation Yrotation Zrotation
		JOINT LeftUpLeg
		{
			OFFSET 11.394100 -6.187798 -0.413800
			CHANNELS 3 Xrotation Yrotation Zrotation
			JOINT LeftLeg
			{
				OFFSET 0.430247 -32.302673 3.732800
				CHANNELS 3 Xrotation Yrotation Zrotation
				JOINT LeftFoot
				{
					OFFSET -0.430247 -48.264931 -6.423300
					CHANNELS 3 Xrotation Yrotation Zrotation
					JOINT LeftToeBase
					{
						OFFSET 4.230900 -16.068199 23.438400
						CHANNELS 3 Xrotation Yrotation Zrotation
						JOINT LeftToe_End
						{
							OFFSET 4.510700 0.695400 19.974600
							CHANNELS 3 Xrotation Yrotation Zrotation
							End Site
							{
								OFFSET 0 0 0
							}
						}
					}
				}
			}
		}
	}
	JOINT RightUpLeg_virtual
	{
		OFFSET 0.000000 0.000000 0.000000
		CHANNELS 3 Xrotation Yrotation Zrotation
		JOINT RightUpLeg
		{
			OFFSET -11.333700 -6.187798 -0.413800
			CHANNELS 3 Xrotation Yrotation Zrotation
			JOINT RightLeg
			{
				OFFSET -0.430392 -32.302628 3.733000
				CHANNELS 3 Xrotation Yrotation Zrotation
				JOINT RightFoot
				{
					OFFSET 0.430392 -48.264973 -6.423500
					CHANNELS 3 Xrotation Yrotation Zrotation
					JOINT RightToeBase
					{
						OFFSET -4.230900 -16.068199 23.438400
						CHANNELS 3 Xrotation Yrotation Zrotation
						JOINT RightToe_End
						{
							OFFSET -4.510700 0.695400 19.974600
							CHANNELS 3 Xrotation Yrotation Zrotation
							End Site
							{
								OFFSET 0 0 0
							}
						}
					}
				}
			}
		}
	}
	JOINT Spine_virtual
	{
		OFFSET 0.000000 0.000000 0.000000
		CHANNELS 3 Xrotation Yrotation Zrotation
		JOINT Spine
		{
			OFFSET -0.002400 12.777504 0.315300
			CHANNELS 3 Xrotation Yrotation Zrotation
			JOINT Spine1
			{
				OFFSET -0.002067 5.816869 0.032633
				CHANNELS 3 Xrotation Yrotation Zrotation
				JOINT Spine1_split
				{
					OFFSET -0.002067 5.816869 0.032633
					CHANNELS 3 Xrotation Yrotation Zrotation
					JOINT Spine2
					{
						OFFSET -0.002067 5.816869 0.032633
						CHANNELS 3 Xrotation Yrotation Zrotation
						JOINT Neck_virtual
						{
							OFFSET 0.000000 0.000000 0.000000
							CHANNELS 3 Xrotation Yrotation Zrotation
							JOINT Neck
							{
								OFFSET -0.003700 21.199493 -0.826900
								CHANNELS 3 Xrotation Yrotation Zrotation
								JOINT Head
								{
									OFFSET 0.000000 20.442200 4.834800
									CHANNELS 3 Xrotation Yrotation Zrotation
									JOINT HeadTop_End
									{
										OFFSET 0.000000 34.668396 4.968400
										CHANNELS 3 Xrotation Yrotation Zrotation
										End Site
										{
											OFFSET 0 0 0
										}
									}
								}
							}
						}
						JOINT LeftShoulder_virtual
						{
							OFFSET 0.000000 0.000000 0.000000
							CHANNELS 3 Xrotation Yrotation Zrotation
							JOINT LeftShoulder
							{
								OFFSET 3.288150 8.794197 -1.372250
								CHANNELS 3 Xrotation Yrotation Zrotation
								JOINT LeftShoulder_split
								{
									OFFSET 3.288150 8.794197 -1.372250
									CHANNELS 3 Xrotation Yrotation Zrotation
									JOINT LeftArm
									{
										OFFSET 11.953299 -2.279007 -0.146200
										CHANNELS 3 Xrotation Yrotation Zrotation
										JOINT LeftForeArm
										{
											OFFSET 18.448900 0.000000 0.000000
											CHANNELS 3 Xrotation Yrotation Zrotation
											JOINT LeftHand
											{
												OFFSET 29.527798 0.000000 0.000000
												CHANNELS 3 Xrotation Yrotation Zrotation
												End Site
												{
													OFFSET 0 0 0
												}
											}
										}
									}
								}
							}
						}
						JOINT RightShoulder_virtual
						{
							OFFSET 0.000000 0.000000 0.000000
							CHANNELS 3 Xrotation Yrotation Zrotation
							JOINT RightShoulder
							{
								OFFSET -3.249400 8.794197 -1.372250
								CHANNELS 3 Xrotation Yrotation Zrotation
								JOINT RightShoulder_split
								{
									OFFSET -3.249400 8.794197 -1.372250
									CHANNELS 3 Xrotation Yrotation Zrotation
									JOINT RightArm
									{
										OFFSET -11.953299 -2.279007 -0.146200
										CHANNELS 3 Xrotation Yrotation Zrotation
										JOINT RightForeArm
										{
											OFFSET -18.448900 0.000000 0.000000
											CHANNELS 3 Xrotation Yrotation Zrotation
											JOINT RightHand
											{
												OFFSET -29.527802 0.000000 0.000000
												CHANNELS 3 Xrotation Yrotation Zrotation
												End Site
												{
													OFFSET 0 0 0
												}
											}
										}
									}
								}
							}
						}
					}
				}
			}
		}
	}
}
MOTION
Frames: 6
Frame Time: 0.03333333
12.698774 95.084511 -3.009647 0.000000 0.000000 0.000000 2.136686 -44.683552 2.355852 -15.400987 16.071824 2.992251 34.765386 22.130788 2.982899 -9.664333 16.351505 -14.160674 -2.426273 -0.932555 -2.577577 0.000000 0.000000 0.000000 2.365451 -44.602064 2.656031 -22.020608 -38.574805 -16.524847 32.993178 -8.274750 -5.872353 -13.636906 -4.313582 11.244271 -9.221765 2.331835 5.170658 0.000000 0.000000 0.000000 4.003756 -43.013652 2.791408 10.454401 -7.006857 2.423594 2.851427 -2.118066 -1.885723 -0.189982 0.075976 0.828173 0.000000 0.000000 0.000000 -7.881675 -3.937405 -0.792840 -9.364547 -5.075134 -4.990894 10.566301 -22.695648 8.220219 0.000000 0.000000 0.000000 -8.835091 -3.962215 -1.178751 -0.816359 2.275299 -6.713680 0.801455 -2.590483 1.673702 9.708883 5.142420 -58.899283 -0.940823 -45.681374 0.138921 0.000000 0.000000 0.000000 -8.928126 -4.289183 -1.078489 -1.147083 -1.624702 5.854784 -3.143314 -4.215749 -2.258451 7.528410 18.519126 71.752271 0.062858 49.300698 1.540086 0.000000 0.000000 0.000000 
12.426558 94.794785 -3.592739 0.000000 0.000000 0.000000 0.985916 -48.092547 2.106927 -13.944545 16.886963 2.988757 35.832962 22.783593 2.542442 -10.280650 17.246718 -14.072207 -2.487467 -0.574578 -3.112788 0.000000 0.000000 0.000000 1.460083 -48.034986 2.494900 -20.416996 -38.833611 -16.107731 31.227259 -9.055428 -5.924583 -14.250494 -5.615786 11.644066 -8.810240 2.393018 4.252084 0.000000 0.000000 0.000000 3.085515 -46.291508 2.614089 10.441770 -6.983492 2.215497 2.615070 -1.913629 -1.700986 -0.218657 -0.096067 0.917348 0.000000 0.000000 0.000000 -8.126600 -3.784054 -0.612361 -9.042108 -4.177806 -5.132412 10.980650 -20.951638 7.790474 0.000000 0.000000 0.000000 -9.065462 -3.773195 -1.011271 -0.737275 2.070389 -6.611831 0.772371 -2.987410 1.791229 9.091972 4.899172 -58.439993 -1.057558 -44.930982 0.163109 0.000000 0.000000 0.000000 -9.134815 -4.105804 -0.920786 -1.357889 -0.778433 5.765595 -3.199512 -4.177147 -2.247364 7.146302 17.167230 72.044432 0.004424 47.842040 1.593927 0.000000 0.000000 0.000000 
11.995796 94.636391 -4.231060 0.000000 0.000000 0.000000 -0.214328 -51.348017 1.526405 -13.354313 17.935291 3.687942 37.363952 23.166999 2.078351 -10.337393 17.637558 -13.854450 -2.907464 -0.298799 -3.853218 0.000000 0.000000 0.000000 0.244855 -51.056798 1.882315 -19.399646 -38.694770 -15.630331 29.361525 -9.457380 -5.890740 -14.295531 -6.190974 12.004737 -9.407357 2.480140 3.318279 0.000000 0.000000 0.000000 2.169224 -49.268046 2.221196 10.515793 -6.637229 1.955159 2.419821 -1.793457 -1.454399 -0.190988 -0.304954 1.016153 0.000000 0.000000 0.000000 -8.314020 -3.678161 -0.380069 -8.757811 -3.459640 -5.215208 11.309655 -19.501040 7.332561 0.000000 0.000000 0.000000 -9.233055 -3.660287 -0.768554 -0.687860 1.812541 -6.473103 0.844046 -3.120135 1.798669 8.279645 4.493368 -58.177092 -1.051076 -44.369083 0.293569 0.000000 0.000000 0.000000 -9.326156 -3.988950 -0.695171 -1.534565 -0.063265 5.664665 -3.118490 -4.090997 -2.302642 6.646192 15.574768 72.198761 -0.022042 45.931748 1.638667 0.000000 0.000000 0.000000 
11.462402 94.710999 -4.763058 0.000000 0.000000 0.000000 -1.389356 -54.212034 0.666583 -13.873901 18.994908 5.143782 39.093674 23.029859 1.795779 -9.497720 17.286020 -13.711384 -4.196176 -0.122115 -4.559399 0.000000 0.000000 0.000000 -1.087374 -53.717904 0.906273 -18.616679 -38.178647 -15.010802 27.412373 -9.493161 -5.820124 -13.950568 -6.122092 12.503245 -10.726246 2.583303 2.446136 0.000000 0.000000 0.000000 1.322159 -51.960005 1.673164 10.645532 -6.033693 1.661992 2.260657 -1.761090 -1.151811 -0.094552 -0.606108 1.020421 0.000000 0.000000 0.000000 -8.429044 -3.634118 -0.094994 -8.524902 -2.905393 -5.275914 11.506114 -18.319568 6.869818 0.000000 0.000000 0.000000 -9.338109 -3.630629 -0.458545 -0.669738 1.501154 -6.340871 1.036233 -2.910797 1.756162 7.421341 3.829317 -58.025455 -0.986379 -43.976118 0.454590 0.000000 0.000000 0.000000 -9.503114 -3.952446 -0.395723 -1.668673 0.496734 5.555252 -2.922774 -3.816372 -2.437585 6.111684 13.782152 72.239277 0.009079 43.655567 1.655749 0.000000 0.000000 0.000000 
10.859385 95.018677 -5.184864 0.000000 0.000000 0.000000 -2.455736 -56.625055 -0.363188 -15.357568 19.805976 7.162442 40.510931 22.182957 1.883211 -8.167387 16.198330 -13.560051 -6.356417 -0.048893 -5.084526 0.000000 0.000000 0.000000 -2.282585 -56.145507 -0.200504 -17.496054 -37.322401 -14.017303 25.437281 -9.516969 -5.713883 -13.700489 -5.845938 12.550459 -11.679020 2.659156 1.855386 0.000000 0.000000 0.000000 0.675385 -54.478989 1.134120 10.788934 -5.256997 1.333083 2.123951 -1.786617 -0.807261 0.013161 -0.917175 0.957669 0.000000 0.000000 0.000000 -8.492872 -3.634123 0.236472 -8.316721 -2.509990 -5.390971 11.577380 -17.385043 6.425332 0.000000 0.000000 0.000000 -9.387024 -3.667625 -0.101530 -0.683900 1.209047 -6.257596 1.305471 -2.347383 1.581275 6.627158 2.801423 -57.916562 -0.924632 -43.636135 0.582869 0.000000 0.000000 0.000000 -9.647767 -3.980712 -0.043622 -1.738392 0.890866 5.453785 -2.703749 -3.370561 -2.656097 5.644959 11.844112 72.205379 0.109800 41.099082 1.637456 0.000000 0.000000 0.000000 
10.181612 95.510864 -5.455715 0.000000 0.000000 0.000000 -3.126443 -58.611704 -1.257231 -17.592320 20.371714 9.454548 41.299265 20.840686 2.203924 -7.465286 14.576074 -12.735724 -8.379176 -0.105818 -5.509476 0.000000 0.000000 0.000000 -3.286981 -58.386424 -1.264424 -15.910892 -36.050087 -12.668898 23.420114 -9.726772 -5.578736 -13.808343 -5.654814 11.869153 -11.422403 2.684471 1.658841 0.000000 0.000000 0.000000 0.323184 -56.862585 0.772095 10.912338 -4.382225 0.992042 1.998006 -1.837187 -0.452034 0.094638 -1.123503 0.891446 0.000000 0.000000 0.000000 -8.524900 -3.649265 0.584817 -8.124333 -2.245146 -5.603444 11.547636 -16.654322 6.022476 0.000000 0.000000 0.000000 -9.413732 -3.728834 0.274265 -0.727523 1.020276 -6.213053 1.661511 -1.553599 1.378006 6.072401 1.357294 -57.782588 -0.932006 -43.335238 0.625331 0.000000 0.000000 0.000000 -9.760966 -4.038108 0.328616 -1.750226 1.102077 5.345769 -2.503123 -2.759152 -2.933676 5.266744 9.825201 72.078993 0.243187 38.387248 1.592156 0.000000 0.000000 0.000000 
